<svg width="74" height="107" viewBox="0 0 74 107" fill="none" xmlns="http://www.w3.org/2000/svg">
<path d="M68.6934 64.5307L68.6012 64.9593C68.2973 66.3736 67.907 67.7978 67.5132 69.2327L67.5034 69.2683C67.1141 70.6866 66.7218 72.1156 66.4168 73.5296L66.4168 73.5297C64.4493 82.6616 66.4131 92.5903 71.7039 100.242C72.3702 101.207 73.0442 102.36 73.3428 103.436C73.6409 104.511 73.5374 105.379 72.8568 105.975L72.8563 105.976C72.4907 106.297 72.0173 106.452 71.4622 106.49C70.9032 106.529 70.2942 106.447 69.6984 106.325L69.6981 106.325C61.7848 104.702 54.7557 99.0802 51.3488 91.64C49.158 86.8545 48.4231 81.4627 48.4874 76.1321C48.4883 76.0571 48.4895 75.9813 48.4906 75.9048C48.5075 74.7733 48.5267 73.4874 48.0339 72.3291C47.7592 71.6835 47.2833 71.0964 46.6986 70.7059C46.112 70.3142 45.3837 70.1018 44.6335 70.2813L44.6332 70.2813C43.6808 70.5097 43.0107 71.2837 42.5205 71.893C42.5203 71.8932 42.5202 71.8934 42.5201 71.8936L42.9096 72.207M68.6934 64.5307L3.30246 61.8495C1.14479 69.151 -0.88319 76.8 0.400231 84.3127C1.68142 91.8254 7.23769 99.1338 14.7146 99.8399C21.5722 100.489 27.8149 95.5738 31.8552 89.9092C33.6575 87.3824 35.183 84.664 36.7075 81.9476C38.6006 78.5743 40.492 75.2039 42.9096 72.207M68.6934 64.5307C69.3238 61.4111 69.4713 58.4184 68.2814 55.6295C66.3433 51.09 62.3615 49.1779 57.8977 48.899C53.4168 48.6189 48.5153 49.9979 44.934 51.9815C39.8676 54.7884 35.4785 59.1285 32.2327 63.9779C31.3978 65.2255 30.6179 66.52 29.8369 67.8282C29.7676 67.9442 29.6983 68.0603 29.629 68.1765C28.9185 69.3675 28.2028 70.5671 27.4471 71.735C25.7875 74.2999 23.9155 76.7439 21.4077 78.6951C20.7805 79.1838 19.9495 79.7148 18.9906 79.6951L18.9901 79.6951C17.5265 79.6634 16.4629 78.3577 16.1479 77.0959C15.8328 75.8337 16.0784 74.5314 16.3036 73.3969L16.3036 73.3967C21.0624 49.4778 31.0527 26.6499 45.3474 7.03156L45.3479 7.03091C46.2323 5.81654 47.0664 4.67132 47.3316 3.34131L47.3316 3.34126C47.5843 2.07511 47.3538 1.40679 47.0036 1.04689C46.6348 0.667788 45.9967 0.484138 45.1197 0.501065C43.3744 0.534751 41.1426 1.3535 39.8646 1.93888L39.8645 1.93891C36.1311 3.64815 32.9142 6.59111 30.0148 9.59406L68.6934 64.5307ZM42.9096 72.207C43.4083 71.5872 43.9829 70.9515 44.7498 70.7676M42.9096 72.207L44.7498 70.7676M44.7498 70.7676C45.917 70.4883 47.0975 71.4055 47.5738 72.5248C48.0235 73.5819 48.0067 74.7665 47.9902 75.9219C47.9893 75.9899 47.9883 76.0579 47.9874 76.1257C47.9226 81.502 48.6627 86.9736 50.8941 91.8481C54.3665 99.4312 61.526 105.159 69.5976 106.815C70.8229 107.067 72.2405 107.182 73.1863 106.351C74.9661 104.792 73.4658 101.913 72.1153 99.958L44.7498 70.7676Z" stroke="black"/>
</svg>
