<svg width="106" height="44" viewBox="0 0 106 44" fill="none" xmlns="http://www.w3.org/2000/svg">
<path d="M68.5962 43.485V37.0737H69.817V43.485H68.5962ZM69.6413 43.485V42.4311H72.5483V43.485H69.6413ZM69.6413 40.7536V39.6997H72.32V40.7536H69.6413ZM69.6413 38.1276V37.0737H72.4781V38.1276H69.6413Z" fill="white"/>
<path d="M63.9429 43.6519C63.3632 43.6519 62.8656 43.5495 62.4498 43.3445C62.0341 43.1396 61.6946 42.8732 61.4311 42.5453C61.1735 42.2175 60.9832 41.8603 60.8602 41.4739C60.7373 41.0874 60.6758 40.7156 60.6758 40.3585V40.1653C60.6758 39.7671 60.7373 39.3749 60.8602 38.9884C60.989 38.602 61.1852 38.2507 61.4486 37.9345C61.7121 37.6184 62.0459 37.3666 62.4498 37.1792C62.8597 36.986 63.3427 36.8894 63.899 36.8894C64.4786 36.8894 64.9821 36.9948 65.4095 37.2056C65.8428 37.4105 66.1883 37.7032 66.4459 38.0838C66.7035 38.4585 66.8587 38.8977 66.9114 39.4012H65.6555C65.6086 39.1084 65.5032 38.8625 65.3393 38.6635C65.1812 38.4585 64.9792 38.3063 64.7333 38.2068C64.4874 38.1014 64.2093 38.0487 63.899 38.0487C63.5828 38.0487 63.3017 38.1043 63.0558 38.2156C62.8099 38.321 62.605 38.4732 62.4411 38.6723C62.2771 38.8713 62.1512 39.1055 62.0634 39.3749C61.9814 39.6442 61.9405 39.9428 61.9405 40.2707C61.9405 40.5868 61.9814 40.8796 62.0634 41.1489C62.1512 41.4182 62.2801 41.6554 62.4498 41.8603C62.6196 42.0594 62.8275 42.2145 63.0734 42.3258C63.3252 42.437 63.615 42.4926 63.9429 42.4926C64.423 42.4926 64.827 42.3755 65.1549 42.1413C65.4886 41.9013 65.6906 41.5675 65.7608 41.1401H67.0167C66.9582 41.5968 66.803 42.0155 66.5513 42.396C66.2995 42.7766 65.9541 43.0811 65.5149 43.3094C65.0758 43.5378 64.5518 43.6519 63.9429 43.6519Z" fill="white"/>
<path d="M53.3501 43.485L55.5369 37.0737H57.5745L59.8228 43.485H58.5406L56.6348 37.9256L57.0827 38.1188H55.9848L56.4415 37.9256L54.5972 43.485H53.3501ZM54.8782 41.7811L55.2735 40.7272H57.8731L58.2595 41.7811H54.8782Z" fill="white"/>
<path d="M48.5332 43.485V37.0737H49.7803V43.485H48.5332ZM49.6047 43.485V42.3871H52.3712V43.485H49.6047Z" fill="white"/>
<path d="M43.2966 41.5176V40.4374H44.5437C44.7954 40.4374 45.0062 40.3876 45.176 40.2881C45.3517 40.1886 45.4834 40.051 45.5712 39.8753C45.6649 39.6997 45.7117 39.4977 45.7117 39.2693C45.7117 39.041 45.6649 38.839 45.5712 38.6633C45.4834 38.4877 45.3517 38.353 45.176 38.2593C45.0062 38.1598 44.7954 38.11 44.5437 38.11H43.2966V37.0298H44.4383C44.9769 37.0298 45.4336 37.1176 45.8084 37.2933C46.1889 37.4689 46.4788 37.7207 46.6778 38.0486C46.8769 38.3706 46.9764 38.7541 46.9764 39.1991V39.3396C46.9764 39.7846 46.8769 40.171 46.6778 40.4989C46.4788 40.8209 46.1889 41.0727 45.8084 41.2542C45.4336 41.4298 44.9769 41.5176 44.4383 41.5176H43.2966ZM42.2251 43.4849V37.0298H43.4722V43.4849H42.2251Z" fill="white"/>
<path d="M37.6026 43.485V37.9959H38.8497V43.485H37.6026ZM35.7495 38.1715V37.0737H40.7028V38.1715H35.7495Z" fill="white"/>
<path d="M30.5791 43.485V37.0737H31.7999V43.485H30.5791ZM31.6242 43.485V42.4311H34.5312V43.485H31.6242ZM31.6242 40.7536V39.6997H34.3029V40.7536H31.6242ZM31.6242 38.1276V37.0737H34.461V38.1276H31.6242Z" fill="white"/>
<path d="M27.8162 43.485L25.4713 40.4901H24.5667L27.3508 37.0737H28.7823L26.2705 40.1476L26.2354 39.5328L29.3356 43.485H27.8162ZM23.6621 43.485V37.0737H24.9092V43.485H23.6621Z" fill="white"/>
<path d="M16.8145 43.4849V37.0298H18.0616V43.4849H16.8145ZM20.7314 43.4849L18.7642 40.6921H20.1606L22.1893 43.4849H20.7314ZM17.6927 41.342V40.332H19.3262C19.5546 40.332 19.7507 40.2852 19.9147 40.1915C20.0845 40.0978 20.2162 39.9661 20.3099 39.7963C20.4036 39.6265 20.4504 39.4333 20.4504 39.2166C20.4504 38.9941 20.4036 38.798 20.3099 38.6282C20.2162 38.4584 20.0845 38.3267 19.9147 38.233C19.7507 38.1393 19.5546 38.0925 19.3262 38.0925H17.6927V37.0298H19.1945C19.7097 37.0298 20.1547 37.1059 20.5294 37.2581C20.91 37.4104 21.2028 37.6416 21.4077 37.9519C21.6126 38.2623 21.7151 38.6516 21.7151 39.12V39.2605C21.7151 39.7348 21.6097 40.1242 21.3989 40.4286C21.194 40.7331 20.9042 40.9614 20.5294 41.1136C20.1547 41.2659 19.7097 41.342 19.1945 41.342H17.6927Z" fill="white"/>
<path d="M8.86279 43.485L11.0496 37.0737H13.0872L15.3355 43.485H14.0532L12.1474 37.9256L12.5954 38.1188H11.4975L11.9542 37.9256L10.1099 43.485H8.86279ZM10.3909 41.7811L10.7862 40.7272H13.3858L13.7722 41.7811H10.3909Z" fill="white"/>
<path d="M0.588379 43.485V37.0737H2.29218L3.89938 40.9029H4.05746L5.65588 37.0737H7.38603V43.485H6.1477V38.0135L6.30578 38.031L4.57563 42.1764H3.30217L1.56324 38.031L1.7301 38.0135V43.485H0.588379Z" fill="white"/>
<path d="M81.2188 33.6048V27.1936H82.9226L84.5297 31.0228H84.6878L86.2862 27.1936H88.0164V33.6048H86.7781V28.1333L86.9362 28.1509L85.206 32.2962H83.9325L82.1936 28.1509L82.3605 28.1333V33.6048H81.2188Z" fill="white"/>
<path d="M76.1049 33.7716C75.5252 33.7716 75.0217 33.6691 74.5943 33.4642C74.1727 33.2592 73.8214 32.9928 73.5404 32.665C73.2652 32.3312 73.0574 31.9741 72.9168 31.5935C72.7822 31.2071 72.7148 30.8353 72.7148 30.4781V30.2849C72.7148 29.8926 72.7851 29.5033 72.9256 29.1168C73.0661 28.7245 73.2769 28.3703 73.558 28.0542C73.8449 27.738 74.1991 27.4862 74.6206 27.2989C75.0422 27.1056 75.5369 27.009 76.1049 27.009C76.667 27.009 77.1588 27.1056 77.5803 27.2989C78.0019 27.4862 78.3532 27.738 78.6342 28.0542C78.9211 28.3703 79.1348 28.7245 79.2754 29.1168C79.4159 29.5033 79.4861 29.8926 79.4861 30.2849V30.4781C79.4861 30.8353 79.4159 31.2071 79.2754 31.5935C79.1407 31.9741 78.9329 32.3312 78.6518 32.665C78.3766 32.9928 78.0253 33.2592 77.5979 33.4642C77.1763 33.6691 76.6787 33.7716 76.1049 33.7716ZM76.1049 32.6123C76.4328 32.6123 76.7255 32.5537 76.9831 32.4366C77.2466 32.3195 77.4691 32.1585 77.6506 31.9536C77.838 31.7428 77.9785 31.5057 78.0722 31.2422C78.1717 30.9729 78.2215 30.6889 78.2215 30.3903C78.2215 30.0683 78.1717 29.7726 78.0722 29.5033C77.9785 29.2339 77.838 28.9997 77.6506 28.8007C77.4691 28.6016 77.2466 28.4464 76.9831 28.3352C76.7197 28.2239 76.4269 28.1683 76.1049 28.1683C75.777 28.1683 75.4813 28.2239 75.2179 28.3352C74.9544 28.4464 74.729 28.6016 74.5416 28.8007C74.3601 28.9997 74.2196 29.2339 74.12 29.5033C74.0264 29.7726 73.9795 30.0683 73.9795 30.3903C73.9795 30.6889 74.0264 30.9729 74.12 31.2422C74.2196 31.5057 74.3601 31.7428 74.5416 31.9536C74.729 32.1585 74.9544 32.3195 75.2179 32.4366C75.4813 32.5537 75.777 32.6123 76.1049 32.6123Z" fill="white"/>
<path d="M68.4399 33.7716C67.8603 33.7716 67.3626 33.6691 66.9469 33.4642C66.5312 33.2592 66.1916 32.9928 65.9281 32.665C65.6705 32.3371 65.4802 31.9799 65.3573 31.5935C65.2343 31.2071 65.1729 30.8353 65.1729 30.4781V30.2849C65.1729 29.8868 65.2343 29.4945 65.3573 29.108C65.4861 28.7216 65.6822 28.3703 65.9457 28.0542C66.2092 27.738 66.5429 27.4862 66.9469 27.2989C67.3568 27.1056 67.8398 27.009 68.396 27.009C68.9757 27.009 69.4792 27.1144 69.9066 27.3252C70.3399 27.5301 70.6853 27.8229 70.943 28.2035C71.2006 28.5782 71.3557 29.0173 71.4084 29.5208H70.1525C70.1057 29.2281 70.0003 28.9822 69.8364 28.7831C69.6783 28.5782 69.4763 28.4259 69.2304 28.3264C68.9845 28.221 68.7063 28.1683 68.396 28.1683C68.0799 28.1683 67.7988 28.2239 67.5529 28.3352C67.307 28.4406 67.1021 28.5928 66.9381 28.7919C66.7742 28.9909 66.6483 29.2251 66.5605 29.4945C66.4785 29.7638 66.4375 30.0624 66.4375 30.3903C66.4375 30.7065 66.4785 30.9992 66.5605 31.2685C66.6483 31.5379 66.7771 31.775 66.9469 31.9799C67.1167 32.179 67.3246 32.3342 67.5705 32.4454C67.8222 32.5566 68.1121 32.6123 68.4399 32.6123C68.9201 32.6123 69.324 32.4952 69.6519 32.261C69.9857 32.0209 70.1877 31.6872 70.2579 31.2598H71.5138C71.4553 31.7165 71.3001 32.1351 71.0483 32.5157C70.7966 32.8962 70.4511 33.2007 70.012 33.429C69.5729 33.6574 69.0489 33.7716 68.4399 33.7716Z" fill="white"/>
<path d="M59.8521 33.6048V27.1936H61.0728V33.6048H59.8521ZM60.8972 33.6048V32.5509H63.8042V33.6048H60.8972ZM60.8972 30.8735V29.8196H63.5758V30.8735H60.8972ZM60.8972 28.2475V27.1936H63.7339V28.2475H60.8972Z" fill="white"/>
<path d="M53.5007 33.6399V32.4806H54.8268C55.1606 32.4806 55.4562 32.4309 55.7139 32.3313C55.9773 32.2259 56.1998 32.0796 56.3813 31.8922C56.5628 31.7048 56.7004 31.4853 56.7941 31.2335C56.8936 30.9759 56.9434 30.6919 56.9434 30.3816C56.9434 30.0596 56.8936 29.7727 56.7941 29.5209C56.7004 29.2633 56.5628 29.0437 56.3813 28.8622C56.1998 28.6807 55.9773 28.5431 55.7139 28.4495C55.4562 28.3558 55.1606 28.3089 54.8268 28.3089H53.5007V27.1497H54.7478C55.3274 27.1497 55.8339 27.2346 56.2671 27.4044C56.7004 27.5741 57.0605 27.8083 57.3474 28.1069C57.6343 28.3997 57.848 28.7364 57.9885 29.1169C58.1349 29.4917 58.2081 29.881 58.2081 30.285V30.4782C58.2081 30.8647 58.1349 31.2452 57.9885 31.6199C57.848 31.9947 57.6343 32.3343 57.3474 32.6387C57.0605 32.9432 56.7004 33.1862 56.2671 33.3677C55.8339 33.5492 55.3274 33.6399 54.7478 33.6399H53.5007ZM52.4292 33.6399V27.1497H53.6763V33.6399H52.4292Z" fill="white"/>
<path d="M45.3839 33.6048V28.1158H46.631V33.6048H45.3839ZM43.5308 28.2914V27.1936H48.4841V28.2914H43.5308Z" fill="white"/>
<path d="M40.0332 33.7716C39.4653 33.7716 38.9851 33.6808 38.5929 33.4993C38.2064 33.3178 37.9107 33.069 37.7058 32.7528C37.5009 32.4308 37.3984 32.0678 37.3984 31.6638H38.6192C38.6192 31.8336 38.666 32.0004 38.7597 32.1644C38.8534 32.3224 39.0027 32.4513 39.2076 32.5508C39.4184 32.6503 39.6936 32.7001 40.0332 32.7001C40.3376 32.7001 40.5923 32.6562 40.7973 32.5684C41.0022 32.4805 41.1544 32.3664 41.254 32.2258C41.3535 32.0795 41.4033 31.9155 41.4033 31.734C41.4033 31.5057 41.3066 31.3242 41.1134 31.1895C40.9202 31.049 40.6216 30.9612 40.2176 30.926L39.6555 30.8821C39.0408 30.8294 38.5489 30.6391 38.1801 30.3113C37.8171 29.9775 37.6356 29.5384 37.6356 28.9939C37.6356 28.584 37.7322 28.2327 37.9254 27.94C38.1186 27.6414 38.3879 27.413 38.7334 27.2549C39.0847 27.091 39.4945 27.009 39.9629 27.009C40.4489 27.009 40.8675 27.0939 41.2188 27.2637C41.5701 27.4335 41.8424 27.6736 42.0356 27.9839C42.2288 28.2884 42.3254 28.6484 42.3254 29.0641H41.1046C41.1046 28.8885 41.0607 28.7275 40.9729 28.5811C40.8909 28.4289 40.7651 28.3088 40.5953 28.221C40.4313 28.1273 40.2205 28.0805 39.9629 28.0805C39.717 28.0805 39.5121 28.1215 39.3482 28.2035C39.1842 28.2854 39.0613 28.3967 38.9793 28.5372C38.8973 28.6777 38.8563 28.8299 38.8563 28.9939C38.8563 29.1929 38.9295 29.3686 39.0759 29.5208C39.2223 29.6672 39.4535 29.7521 39.7697 29.7755L40.3318 29.8282C40.7885 29.8633 41.1895 29.96 41.535 30.118C41.8804 30.2761 42.1468 30.4898 42.3342 30.7592C42.5274 31.0285 42.624 31.3534 42.624 31.734C42.624 32.138 42.5186 32.4952 42.3079 32.8055C42.0971 33.1099 41.7955 33.3471 41.4033 33.5169C41.0168 33.6867 40.5601 33.7716 40.0332 33.7716Z" fill="white"/>
<path d="M31.0498 33.6048V27.1497H32.2969V33.6048H31.0498ZM34.9668 33.6048L32.9995 30.812H34.3959L36.4247 33.6048H34.9668ZM31.9281 31.4619V30.4519H33.5616C33.7899 30.4519 33.9861 30.405 34.15 30.3114C34.3198 30.2177 34.4516 30.0859 34.5452 29.9161C34.6389 29.7463 34.6858 29.5531 34.6858 29.3365C34.6858 29.114 34.6389 28.9179 34.5452 28.7481C34.4516 28.5783 34.3198 28.4465 34.15 28.3529C33.9861 28.2592 33.7899 28.2123 33.5616 28.2123H31.9281V27.1497H33.4299C33.9451 27.1497 34.3901 27.2258 34.7648 27.378C35.1454 27.5302 35.4381 27.7615 35.6431 28.0718C35.848 28.3821 35.9504 28.7715 35.9504 29.2399V29.3804C35.9504 29.8547 35.845 30.244 35.6343 30.5485C35.4293 30.8529 35.1395 31.0813 34.7648 31.2335C34.3901 31.3857 33.9451 31.4619 33.4299 31.4619H31.9281Z" fill="white"/>
<path d="M27.6758 33.6048V27.1936H28.9229V33.6048H27.6758Z" fill="white"/>
<path d="M22.2168 33.6048V27.1936H23.4639V33.6048H22.2168ZM23.2883 30.9349V29.881L25.8527 29.8723V30.9262L23.2883 30.9349ZM23.2883 28.2475V27.1936H25.9757V28.2475H23.2883Z" fill="white"/>
<path d="M14.0356 33.6048V27.1936H15.2564V33.6048H14.0356ZM15.0808 33.6048V32.5509H17.9878V33.6048H15.0808ZM15.0808 30.8735V29.8196H17.7594V30.8735H15.0808ZM15.0808 28.2475V27.1936H17.9175V28.2475H15.0808Z" fill="white"/>
<path d="M10.6824 33.6048V27.1936H11.9295V33.6048H10.6824ZM6.47559 33.6048V27.1936H7.7227V33.6048H6.47559ZM7.49436 30.9437V29.8459H10.9107V30.9437H7.49436Z" fill="white"/>
<path d="M1.85311 33.6048V28.1158H3.10022V33.6048H1.85311ZM0 28.2914V27.1936H4.95333V28.2914H0Z" fill="white"/>
<path d="M0.115234 19.3617V1.45315C0.115234 1.02109 0.467857 0.670654 0.902599 0.670654H5.74031C6.17505 0.670654 6.52767 1.02109 6.52767 1.45315V6.71817C6.52767 7.15022 6.8803 7.50066 7.31504 7.50066H11.1577C11.5924 7.50066 11.945 7.15022 11.945 6.71817V1.45315C11.945 1.02109 12.2977 0.670654 12.7324 0.670654H17.5701C18.0049 0.670654 18.3575 1.02109 18.3575 1.45315V19.3617C18.3575 19.7937 18.0049 20.1442 17.5701 20.1442H12.7324C12.2977 20.1442 11.945 19.7937 11.945 19.3617V14.3463C11.945 13.9142 11.5924 13.5638 11.1577 13.5638H7.31504C6.8803 13.5638 6.52767 13.9142 6.52767 14.3463V19.3617C6.52767 19.7937 6.17505 20.1442 5.74031 20.1442H0.902599C0.467857 20.1442 0.115234 19.7937 0.115234 19.3617Z" fill="white"/>
<path d="M38.7249 20.1442H34.0346V19.082C32.8318 20.0553 31.2293 20.5426 29.2246 20.5426C26.5075 20.5426 24.2372 19.5693 22.3219 17.6215C20.4513 15.6736 19.5166 13.3285 19.5166 10.6282C19.5166 7.92791 20.496 5.49402 22.4113 3.5918C24.3712 1.64397 26.7309 0.670654 29.4915 0.670654C32.2521 0.670654 34.6577 1.64397 36.573 3.5918C38.5329 5.49522 39.5123 7.8403 39.5123 10.6282V19.3617C39.5123 19.7937 39.1597 20.1442 38.7249 20.1442ZM29.4915 6.1589C27.0425 6.1589 25.0378 8.14994 25.0378 10.6294C25.0378 13.1089 27.0413 15.0556 29.4915 15.0556C31.9418 15.0556 33.9452 13.0645 33.9452 10.6294C33.9452 8.19434 31.9852 6.1589 29.4915 6.1589Z" fill="white"/>
<path d="M58.0825 9.08005V19.3617C58.0825 19.7937 57.7298 20.1442 57.2951 20.1442H53.1699C52.7351 20.1442 52.3825 19.7937 52.3825 19.3617V9.08005C52.3825 7.0002 51.536 5.93808 49.7994 5.93808C48.0629 5.93808 47.1716 7.13342 47.1716 9.08005V19.3617C47.1716 19.7937 46.819 20.1442 46.3843 20.1442H42.259C41.8243 20.1442 41.4717 19.7937 41.4717 19.3617V9.08005C41.4717 6.42413 42.2735 4.34429 43.876 2.88372C45.4798 1.42314 47.4385 0.670654 49.7994 0.670654C51.9816 0.670654 53.7628 1.28993 55.2325 2.52967C56.7021 1.28993 58.5281 0.670654 60.7102 0.670654C63.0699 0.670654 65.0299 1.42314 66.5889 2.88372C68.1926 4.34429 68.9933 6.42413 68.9933 9.08005V19.3617C68.9933 19.7937 68.6406 20.1442 68.2059 20.1442H64.0807C63.6459 20.1442 63.2933 19.7937 63.2933 19.3617V9.08005C63.2933 7.0002 62.4468 5.93808 60.7102 5.93808C58.9737 5.93808 58.0825 7.08901 58.0825 9.08005Z" fill="white"/>
<path d="M71.6493 1.06909H82.3149C84.2048 1.06909 85.7904 2.57287 85.7808 4.45109C85.7759 5.3284 85.4644 6.11929 84.8461 6.86698L78.9843 13.583C78.5423 14.0894 78.9046 14.8779 79.5785 14.8779H84.8147C85.2494 14.8779 85.6021 15.2284 85.6021 15.6604V19.3629C85.6021 19.7949 85.2494 20.1453 84.8147 20.1453H73.6225C71.6191 20.1453 70.1929 18.6848 70.1929 16.6937C70.1929 15.8968 70.5044 15.1 71.1722 14.3475L76.9978 7.63027C77.4374 7.12261 77.0751 6.33651 76.4012 6.33651H71.6468C71.2121 6.33651 70.8595 5.98607 70.8595 5.55402V1.85158C70.8595 1.41953 71.2121 1.06909 71.6468 1.06909H71.6493Z" fill="white"/>
<path d="M105.212 20.1442H100.522V19.082C99.3191 20.0553 97.7166 20.5426 95.7119 20.5426C92.9948 20.5426 90.7245 19.5693 88.8092 17.6215C86.9386 15.6736 86.0039 13.3285 86.0039 10.6282C86.0039 7.92791 86.9833 5.49402 88.8986 3.5918C90.8585 1.64397 93.2182 0.670654 95.9788 0.670654C98.7394 0.670654 101.145 1.64397 103.06 3.5918C105.02 5.49522 106 7.8403 106 10.6282V19.3617C106 19.7937 105.647 20.1442 105.212 20.1442ZM95.9788 6.1589C93.5298 6.1589 91.5251 8.14994 91.5251 10.6294C91.5251 13.1089 93.5286 15.0556 95.9788 15.0556C98.4291 15.0556 100.433 13.0645 100.433 10.6294C100.433 8.19434 98.4725 6.1589 95.9788 6.1589Z" fill="white"/>
</svg>
