<svg width="176" height="63" viewBox="0 0 176 63" fill="none" xmlns="http://www.w3.org/2000/svg">
<g clip-path="url(#clip0_2773_102565)">
<path d="M59.8203 44.4956V24.8655C59.8203 24.3919 60.2072 24.0078 60.6842 24.0078H65.9924C66.4694 24.0078 66.8563 24.3919 66.8563 24.8655V30.6367C66.8563 31.1103 67.2433 31.4944 67.7203 31.4944H71.9366C72.4136 31.4944 72.8005 31.1103 72.8005 30.6367V24.8655C72.8005 24.3919 73.1874 24.0078 73.6645 24.0078H78.9726C79.4496 24.0078 79.8365 24.3919 79.8365 24.8655V44.4956C79.8365 44.9692 79.4496 45.3533 78.9726 45.3533H73.6645C73.1874 45.3533 72.8005 44.9692 72.8005 44.4956V38.9981C72.8005 38.5245 72.4136 38.1403 71.9366 38.1403H67.7203C67.2433 38.1403 66.8563 38.5245 66.8563 38.9981V44.4956C66.8563 44.9692 66.4694 45.3533 65.9924 45.3533H60.6842C60.2072 45.3533 59.8203 44.9692 59.8203 44.4956Z" fill="white"/>
<path d="M102.186 45.3533H97.0392V44.1891C95.7194 45.2559 93.9611 45.79 91.7615 45.79C88.7801 45.79 86.289 44.7232 84.1875 42.5881C82.135 40.453 81.1094 37.8825 81.1094 34.9226C81.1094 31.9627 82.184 29.2948 84.2855 27.2098C86.4361 25.0747 89.0252 24.0078 92.0543 24.0078C95.0834 24.0078 97.7229 25.0747 99.8244 27.2098C101.975 29.2962 103.05 31.8667 103.05 34.9226V44.4956C103.05 44.9692 102.663 45.3533 102.186 45.3533ZM92.0543 30.0236C89.3671 30.0236 87.1675 32.2061 87.1675 34.9239C87.1675 37.6418 89.3658 39.7755 92.0543 39.7755C94.7428 39.7755 96.9411 37.5931 96.9411 34.9239C96.9411 32.2547 94.7905 30.0236 92.0543 30.0236Z" fill="white"/>
<path d="M123.425 33.2256V44.4956C123.425 44.9692 123.038 45.3533 122.561 45.3533H118.035C117.558 45.3533 117.171 44.9692 117.171 44.4956V33.2256C117.171 30.9458 116.242 29.7816 114.337 29.7816C112.431 29.7816 111.453 31.0918 111.453 33.2256V44.4956C111.453 44.9692 111.067 45.3533 110.59 45.3533H106.063C105.586 45.3533 105.199 44.9692 105.199 44.4956V33.2256C105.199 30.3144 106.079 28.0346 107.837 26.4336C109.597 24.8326 111.746 24.0078 114.337 24.0078C116.731 24.0078 118.686 24.6866 120.298 26.0455C121.911 24.6866 123.914 24.0078 126.309 24.0078C128.898 24.0078 131.048 24.8326 132.759 26.4336C134.519 28.0346 135.397 30.3144 135.397 33.2256V44.4956C135.397 44.9692 135.01 45.3533 134.533 45.3533H130.007C129.53 45.3533 129.143 44.9692 129.143 44.4956V33.2256C129.143 30.9458 128.214 29.7816 126.309 29.7816C124.403 29.7816 123.425 31.0432 123.425 33.2256Z" fill="white"/>
<path d="M138.313 24.4453H150.016C152.089 24.4453 153.829 26.0936 153.819 28.1524C153.813 29.1141 153.471 29.981 152.793 30.8005L146.361 38.1621C145.876 38.7173 146.274 39.5816 147.013 39.5816H152.759C153.236 39.5816 153.622 39.9657 153.622 40.4393V44.4976C153.622 44.9712 153.236 45.3554 152.759 45.3554H140.478C138.28 45.3554 136.715 43.7544 136.715 41.5719C136.715 40.6984 137.057 39.8249 137.789 39.0001L144.182 31.6372C144.664 31.0807 144.266 30.2191 143.527 30.2191H138.31C137.833 30.2191 137.446 29.835 137.446 29.3614V25.303C137.446 24.8294 137.833 24.4453 138.31 24.4453H138.313Z" fill="white"/>
<path d="M175.139 45.3533H169.992V44.1891C168.673 45.2559 166.914 45.79 164.715 45.79C161.733 45.79 159.242 44.7232 157.141 42.5881C155.088 40.453 154.062 37.8825 154.062 34.9226C154.062 31.9627 155.137 29.2948 157.239 27.2098C159.389 25.0747 161.978 24.0078 165.007 24.0078C168.036 24.0078 170.676 25.0747 172.778 27.2098C174.928 29.2962 176.003 31.8667 176.003 34.9226V44.4956C176.003 44.9692 175.616 45.3533 175.139 45.3533ZM165.007 30.0236C162.32 30.0236 160.121 32.2061 160.121 34.9239C160.121 37.6418 162.319 39.7755 165.007 39.7755C167.696 39.7755 169.894 37.5931 169.894 34.9239C169.894 32.2547 167.744 30.0236 165.007 30.0236Z" fill="white"/>
<path d="M40.9454 38.2595C41.3668 36.3428 41.5112 34.4511 40.7374 32.6778C38.3271 27.1579 30.8114 28.0814 26.4851 30.4243C23.4349 32.0766 20.8007 34.626 18.8555 37.4675C16.8573 40.3867 15.4011 43.7241 12.5045 45.9276C12.1401 46.2052 11.7188 46.4551 11.2603 46.4459C10.5766 46.4314 10.0253 45.8184 9.85706 45.1593C9.68878 44.5003 9.81731 43.8083 9.95246 43.1427C12.7642 29.3245 18.6673 16.1366 27.1132 4.80343C27.6287 4.11147 28.168 3.39583 28.3402 2.55128C28.9762 -0.565168 25.0316 0.733241 23.5011 1.41862C21.2353 2.43288 19.2967 4.17199 17.5742 5.91635C9.45557 14.1396 5.29093 25.3662 1.9571 36.3954C0.678427 40.6261 -0.523395 45.058 0.237184 49.4111C0.996439 53.7641 4.28919 57.9987 8.72017 58.4078C12.7841 58.7841 16.4836 55.936 18.878 52.6538C21.2724 49.3716 22.8426 45.5316 25.4291 42.3968C25.7246 42.0376 26.0651 41.6693 26.5196 41.5627C27.2113 41.4009 27.9109 41.9324 28.1931 42.5809C28.4754 43.2295 28.4475 43.9609 28.4383 44.6673C28.3998 47.7825 28.8384 50.9528 30.1608 53.7772C32.2186 58.1711 36.4614 61.4901 41.2449 62.4491C41.971 62.5951 42.8111 62.6622 43.3716 62.1807C44.4263 61.277 43.5372 59.6089 42.7369 58.4762C39.6482 54.1088 38.5007 48.4376 39.6495 43.2242C40.0099 41.5904 40.5797 39.9157 40.9441 38.2582L40.9454 38.2595Z" fill="#84C441"/>
</g>
<defs>
<clipPath id="clip0_2773_102565">
<rect width="176" height="62" fill="white" transform="translate(0 0.556641)"/>
</clipPath>
</defs>
</svg>
