<svg width="214" height="72" viewBox="0 0 214 72" fill="none" xmlns="http://www.w3.org/2000/svg">
<path d="M0.441406 38.021V1.99688C0.441406 1.12778 1.15073 0.422852 2.02524 0.422852H11.7566C12.6311 0.422852 13.3404 1.12778 13.3404 1.99688V12.5878C13.3404 13.4569 14.0497 14.1618 14.9243 14.1618H22.654C23.5285 14.1618 24.2378 13.4569 24.2378 12.5878V1.99688C24.2378 1.12778 24.9471 0.422852 25.8216 0.422852H35.553C36.4275 0.422852 37.1368 1.12778 37.1368 1.99688V38.021C37.1368 38.8901 36.4275 39.595 35.553 39.595H25.8216C24.9471 39.595 24.2378 38.8901 24.2378 38.021V27.9322C24.2378 27.0631 23.5285 26.3582 22.654 26.3582H14.9243C14.0497 26.3582 13.3404 27.0631 13.3404 27.9322V38.021C13.3404 38.8901 12.6311 39.595 11.7566 39.595H2.02524C1.15073 39.595 0.441406 38.8901 0.441406 38.021Z" fill="white"/>
<path d="M78.1095 39.595H68.6745V37.4585C66.255 39.4163 63.0315 40.3965 58.999 40.3965C53.5333 40.3965 48.9664 38.4386 45.1137 34.5204C41.3509 30.6022 39.4707 25.885 39.4707 20.4531C39.4707 15.0213 41.4408 10.1254 45.2935 6.29891C49.2361 2.38073 53.9827 0.422852 59.5358 0.422852C65.089 0.422852 69.9279 2.38073 73.7806 6.29891C77.7232 10.1278 79.6933 14.845 79.6933 20.4531V38.021C79.6933 38.8901 78.984 39.595 78.1095 39.595ZM59.5358 11.4628C54.6094 11.4628 50.577 15.4679 50.577 20.4555C50.577 25.4432 54.607 29.359 59.5358 29.359C64.4647 29.359 68.4947 25.3539 68.4947 20.4555C68.4947 15.5572 64.5521 11.4628 59.5358 11.4628Z" fill="white"/>
<path d="M117.048 17.3389V38.021C117.048 38.8901 116.339 39.595 115.464 39.595H107.166C106.292 39.595 105.583 38.8901 105.583 38.021V17.3389C105.583 13.1551 103.88 11.0186 100.386 11.0186C96.8933 11.0186 95.1006 13.4231 95.1006 17.3389V38.021C95.1006 38.8901 94.3912 39.595 93.5167 39.595H85.2186C84.3441 39.595 83.6348 38.8901 83.6348 38.021V17.3389C83.6348 11.9963 85.2478 7.81259 88.4713 4.87456C91.6973 1.93653 95.6374 0.422852 100.386 0.422852C104.776 0.422852 108.359 1.66855 111.315 4.16238C114.272 1.66855 117.945 0.422852 122.334 0.422852C127.081 0.422852 131.023 1.93653 134.16 4.87456C137.386 7.81259 138.996 11.9963 138.996 17.3389V38.021C138.996 38.8901 138.287 39.595 137.412 39.595H129.114C128.24 39.595 127.53 38.8901 127.53 38.021V17.3389C127.53 13.1551 125.827 11.0186 122.334 11.0186C118.841 11.0186 117.048 13.3338 117.048 17.3389Z" fill="white"/>
<path d="M144.338 1.22461H165.792C169.594 1.22461 172.784 4.24955 172.764 8.02771C172.755 9.79246 172.128 11.3834 170.884 12.8874L159.093 26.397C158.204 27.4158 158.932 29.0019 160.288 29.0019H170.821C171.695 29.0019 172.405 29.7069 172.405 30.5759V38.0236C172.405 38.8927 171.695 39.5977 170.821 39.5977H148.307C144.277 39.5977 141.408 36.6596 141.408 32.6545C141.408 31.0515 142.035 29.4485 143.378 27.9349L155.097 14.4228C155.981 13.4016 155.252 11.8203 153.897 11.8203H144.333C143.458 11.8203 142.749 11.1154 142.749 10.2463V2.79864C142.749 1.92954 143.458 1.22461 144.333 1.22461H144.338Z" fill="white"/>
<path d="M211.851 39.595H202.416V37.4585C199.996 39.4163 196.773 40.3965 192.74 40.3965C187.275 40.3965 182.708 38.4386 178.855 34.5204C175.092 30.6022 173.212 25.885 173.212 20.4531C173.212 15.0213 175.182 10.1254 179.035 6.29891C182.977 2.38073 187.724 0.422852 193.277 0.422852C198.83 0.422852 203.669 2.38073 207.522 6.29891C211.464 10.1278 213.434 14.845 213.434 20.4531V38.021C213.434 38.8901 212.725 39.595 211.851 39.595ZM193.277 11.4628C188.351 11.4628 184.318 15.4679 184.318 20.4555C184.318 25.4432 188.348 29.359 193.277 29.359C198.206 29.359 202.236 25.3539 202.236 20.4555C202.236 15.5572 198.293 11.4628 193.277 11.4628Z" fill="white"/>
<path d="M143.406 71.7646V52.9273H151.573C153.008 52.9273 154.213 53.1204 155.188 53.5067C156.169 53.893 156.908 54.4388 157.405 55.144C157.908 55.8491 158.159 56.68 158.159 57.6366C158.159 58.3295 158.006 58.9611 157.699 59.5314C157.399 60.1017 156.976 60.5799 156.43 60.9663C155.884 61.3464 155.246 61.6101 154.517 61.7573V61.9412C155.326 61.9719 156.062 62.1773 156.724 62.5575C157.386 62.9316 157.914 63.4497 158.306 64.112C158.699 64.7681 158.895 65.5407 158.895 66.4298C158.895 67.46 158.625 68.3767 158.085 69.18C157.552 69.9833 156.792 70.6149 155.804 71.0748C154.817 71.5347 153.64 71.7646 152.272 71.7646H143.406ZM148.52 67.6808H150.911C151.77 67.6808 152.413 67.5213 152.843 67.2025C153.272 66.8775 153.486 66.3992 153.486 65.7676C153.486 65.3261 153.385 64.952 153.183 64.6454C152.981 64.3388 152.692 64.1058 152.318 63.9464C151.95 63.787 151.506 63.7072 150.985 63.7072H148.52V67.6808ZM148.52 60.5432H150.617C151.064 60.5432 151.46 60.4726 151.803 60.3316C152.147 60.1906 152.413 59.9882 152.603 59.7245C152.8 59.4547 152.898 59.1267 152.898 58.7404C152.898 58.1578 152.689 57.7133 152.272 57.4067C151.855 57.0939 151.328 56.9376 150.69 56.9376H148.52V60.5432ZM160.707 71.7646V52.9273H174.283V57.0479H165.821V60.2856H173.584V64.4063H165.821V67.644H174.246V71.7646H160.707ZM176.304 57.0479V52.9273H192.677V57.0479H187.011V71.7646H181.97V57.0479H176.304ZM197.117 71.7646H191.598L197.816 52.9273H204.806L211.024 71.7646H205.505L201.385 58.1149H201.238L197.117 71.7646ZM196.087 64.3327H206.462V68.1591H196.087V64.3327Z" fill="white"/>
</svg>
