<svg width="28" height="40" viewBox="0 0 28 40" fill="none" xmlns="http://www.w3.org/2000/svg">
<path d="M25.6897 24.7093C26.0176 23.5498 25.9708 22.3201 25.5491 21.1841C24.0266 17.7175 19.3538 18.3031 16.6484 19.767C14.7278 20.8562 13.0999 22.367 11.8819 24.2057C10.863 26.1849 9.51616 27.9768 7.9234 29.5227C7.71259 29.7218 7.44323 29.8389 7.15044 29.8623C6.71712 29.8038 6.35406 29.4758 6.27208 29.0425C6.17839 28.6326 6.17839 28.1993 6.27208 27.7777C8.06394 19.0526 11.7413 10.8195 17.0583 3.66379C17.4097 3.25389 17.6673 2.77372 17.8196 2.24671C18.2178 0.267471 15.7584 1.08727 14.7863 1.53231C13.3926 2.235 12.1512 3.19533 11.1089 4.35477C6.01443 9.53123 3.4262 16.5932 1.32985 23.5264C0.346088 26.1264 -0.016967 28.9371 0.264108 31.7127C0.580317 34.582 2.73522 36.9009 5.5694 37.4396C8.11078 37.6856 10.4179 35.9171 11.9053 33.8208C13.3926 31.7244 14.3764 29.3353 16.0043 27.3678C16.1566 27.1101 16.3908 26.9227 16.6719 26.8056C17.1286 26.7588 17.5619 27.0281 17.7142 27.4615C17.8664 27.8831 17.9133 28.3281 17.8664 28.7732C17.8196 30.7055 18.1826 32.6262 18.9439 34.4064C20.2673 37.2405 22.8555 39.29 25.9356 39.9225C26.3807 40.0747 26.8608 40.0161 27.259 39.7585C27.9266 39.1963 27.3644 38.154 26.8608 37.4396C24.9284 34.6406 24.2257 31.174 24.9284 27.8362C25.0924 26.8173 25.4554 25.7516 25.6897 24.721V24.7093Z" fill="#84C441"/>
</svg>
