<svg width="49" height="72" viewBox="0 0 49 72" fill="none" xmlns="http://www.w3.org/2000/svg">
<path d="M45.7503 43.675C46.2211 41.48 46.3825 39.3137 45.5179 37.2829C42.8248 30.9615 34.4271 32.0191 29.5931 34.7022C26.1849 36.5944 23.2416 39.514 21.0682 42.7681C18.8355 46.1111 17.2084 49.9331 13.9719 52.4566C13.5648 52.7744 13.0939 53.0607 12.5817 53.0501C11.8177 53.0335 11.2018 52.3315 11.0138 51.5767C10.8257 50.822 10.9694 50.0295 11.1204 49.2672C14.2621 33.4427 20.8579 18.3399 30.2949 5.36118C30.8708 4.56875 31.4734 3.74921 31.6659 2.78202C32.3766 -0.786931 27.969 0.700006 26.2589 1.4849C23.7272 2.64643 21.5612 4.63805 19.6365 6.6357C10.5652 16.053 5.91182 28.9096 2.18677 41.5403C0.758039 46.3853 -0.584815 51.4607 0.265018 56.4458C1.11337 61.4309 4.79252 66.2804 9.74347 66.7489C14.2843 67.1798 18.418 63.9182 21.0933 60.1594C23.7687 56.4006 25.5231 52.0031 28.4131 48.413C28.7433 48.0018 29.1238 47.5799 29.6316 47.4579C30.4045 47.2726 31.1862 47.8812 31.5016 48.624C31.8169 49.3667 31.7858 50.2043 31.7755 51.0133C31.7325 54.5807 32.2226 58.2115 33.7002 61.446C35.9995 66.4777 40.7402 70.2787 46.0849 71.377C46.8963 71.5442 47.8349 71.621 48.4612 71.0696C49.6397 70.0346 48.6463 68.1244 47.752 66.8273C44.3009 61.8256 43.0187 55.331 44.3024 49.3606C44.7051 47.4895 45.3417 45.5717 45.7488 43.6735L45.7503 43.675Z" fill="black"/>
</svg>
