<svg width="45" height="40" viewBox="0 0 45 40" fill="none" xmlns="http://www.w3.org/2000/svg">
<path d="M15.0734 29.6C13.7534 29.6 12.6234 29.13 11.6834 28.19C10.7434 27.25 10.2734 26.12 10.2734 24.8V15.2C10.2734 13.88 10.7434 12.75 11.6834 11.81C12.6234 10.87 13.7534 10.4 15.0734 10.4H29.4734C30.7934 10.4 31.9234 10.87 32.8634 11.81C33.8034 12.75 34.2734 13.88 34.2734 15.2V24.8C34.2734 26.12 33.8034 27.25 32.8634 28.19C31.9234 29.13 30.7934 29.6 29.4734 29.6H15.0734ZM15.0734 15.2H29.4734C29.9134 15.2 30.3334 15.25 30.7334 15.35C31.1334 15.45 31.5134 15.61 31.8734 15.83V15.2C31.8734 14.54 31.6384 13.975 31.1684 13.505C30.6984 13.035 30.1334 12.8 29.4734 12.8H15.0734C14.4134 12.8 13.8484 13.035 13.3784 13.505C12.9084 13.975 12.6734 14.54 12.6734 15.2V15.83C13.0334 15.61 13.4134 15.45 13.8134 15.35C14.2134 15.25 14.6334 15.2 15.0734 15.2ZM12.8534 19.1L26.2034 22.34C26.3834 22.38 26.5634 22.38 26.7434 22.34C26.9234 22.3 27.0934 22.22 27.2534 22.1L31.4234 18.62C31.2034 18.32 30.9234 18.075 30.5834 17.885C30.2434 17.695 29.8734 17.6 29.4734 17.6H15.0734C14.5534 17.6 14.0984 17.735 13.7084 18.005C13.3184 18.275 13.0334 18.64 12.8534 19.1Z" fill="#E8EAED"/>
</svg>
